# xmcd
#
# Track frame offsets:
#	150
#	20565
#	35646
#	55408
#	74574
#	94339
#	111674
#	130130
#	147049
#	161839
#	176915
#	201002
#	221792
#	236962
#	260520
#
# Disc length: 3660 seconds
#
# Revision: 1
# Processed by: cddbd v1.5.1PL2 Copyright (c) Steve Scherf et al.
# Submitted via: audiograbber 1.83.01
#
DISCID=f60e4a0f
DTITLE=Chartbuster Karaoke - CBE3-11
DYEAR=2003
DGENRE=Karaoke
TTITLE0=Brooks and Dunn - Only In America
TTITLE1=Andy Griggs - Tonight I Wanna Be Your Man
TTITLE2=Martina McBride - Blessed
TTITLE3=Alan Jackson - Where I Come From
TTITLE4=Brad Paisley - Two People Fell In Love
TTITLE5=Carolyn Dawn Johnson - Complicated
TTITLE6=Aaron Tippon - Where The Stars And Stripes And The Eagle Fly
TTITLE7=Brad Martin - Before I Knew Better
TTITLE8=Cyndi Thompson - I Always Liked That Best
TTITLE9=Brad Paisley - Wrapped Around
TTITLE10=Alan Jackson - Where Were You
TTITLE11=Sara Evans - I Could Not Ask For More
TTITLE12=Toby Keith - Angry American, The (Courtesy Of The Red, White and Blue)
TTITLE13=Garth Brooks - Wrapped Up In You
TTITLE14=Martina McBride - I Love You
EXTD=
EXTT0=
EXTT1=
EXTT2=
EXTT3=
EXTT4=
EXTT5=
EXTT6=
EXTT7=
EXTT8=
EXTT9=
EXTT10=
EXTT11=
EXTT12=
EXTT13=
EXTT14=
PLAYORDER=
